<mxfile host="65bd71144e">
    <diagram id="-8RV91jiBXgCZmh8I0XD" name="第 1 页">
        <mxGraphModel dx="1386" dy="3201" grid="0" gridSize="10" guides="1" tooltips="1" connect="1" arrows="1" fold="1" page="1" pageScale="1" pageWidth="3300" pageHeight="2339" background="#BFF0CD" math="0" shadow="0">
            <root>
                <mxCell id="0"/>
                <mxCell id="1" parent="0"/>
                <mxCell id="448" value="" style="group" vertex="1" connectable="0" parent="1">
                    <mxGeometry x="200" y="-132" width="794" height="701" as="geometry"/>
                </mxCell>
                <mxCell id="196" value="&lt;font style=&quot;font-size: 19px;&quot; color=&quot;#ff0000&quot;&gt;calico-ipip&lt;/font&gt;" style="text;html=1;align=center;verticalAlign=middle;resizable=0;points=[];autosize=1;strokeColor=none;fillColor=none;strokeWidth=5;" parent="448" vertex="1">
                    <mxGeometry x="335" width="102" height="35" as="geometry"/>
                </mxCell>
                <mxCell id="386" value="" style="group" vertex="1" connectable="0" parent="448">
                    <mxGeometry y="52" width="320" height="582" as="geometry"/>
                </mxCell>
                <mxCell id="28" value="" style="group;fillColor=#60a917;strokeColor=#2D7600;fontColor=#ffffff;movable=0;resizable=0;rotatable=0;deletable=0;editable=0;connectable=0;" parent="386" vertex="1" connectable="0">
                    <mxGeometry width="320" height="580" as="geometry"/>
                </mxCell>
                <mxCell id="11" value="" style="rounded=0;whiteSpace=wrap;html=1;fillColor=#1ba1e2;fontColor=#ffffff;strokeColor=#006EAF;movable=0;resizable=0;rotatable=0;deletable=0;editable=0;connectable=0;" parent="28" vertex="1">
                    <mxGeometry width="320" height="580" as="geometry"/>
                </mxCell>
                <mxCell id="16" style="edgeStyle=none;html=1;movable=0;resizable=0;rotatable=0;deletable=0;editable=0;connectable=0;" parent="28" source="4" target="11" edge="1">
                    <mxGeometry relative="1" as="geometry"/>
                </mxCell>
                <mxCell id="17" style="edgeStyle=none;html=1;movable=0;resizable=0;rotatable=0;deletable=0;editable=0;connectable=0;" parent="28" source="4" target="11" edge="1">
                    <mxGeometry relative="1" as="geometry"/>
                </mxCell>
                <mxCell id="18" style="edgeStyle=none;html=1;movable=0;resizable=0;rotatable=0;deletable=0;editable=0;connectable=0;" parent="28" source="4" target="11" edge="1">
                    <mxGeometry relative="1" as="geometry"/>
                </mxCell>
                <mxCell id="19" style="edgeStyle=none;html=1;movable=0;resizable=0;rotatable=0;deletable=0;editable=0;connectable=0;" parent="28" source="4" target="11" edge="1">
                    <mxGeometry relative="1" as="geometry"/>
                </mxCell>
                <mxCell id="4" value="pod" style="rounded=0;whiteSpace=wrap;html=1;fillColor=#fa6800;fontColor=#000000;strokeColor=#C73500;dashed=1;movable=0;resizable=0;rotatable=0;deletable=0;editable=0;connectable=0;" parent="28" vertex="1">
                    <mxGeometry width="110" height="193.33333333333331" as="geometry"/>
                </mxCell>
                <mxCell id="10" value="路由表" style="rounded=0;whiteSpace=wrap;html=1;fillColor=#e3c800;fontColor=#000000;strokeColor=#B09500;movable=0;resizable=0;rotatable=0;deletable=0;editable=0;connectable=0;" parent="28" vertex="1">
                    <mxGeometry x="100" y="320" width="120" height="60.416666666666664" as="geometry"/>
                </mxCell>
                <mxCell id="14" value="tun0网卡" style="rounded=0;whiteSpace=wrap;html=1;fillColor=#e3c800;fontColor=#000000;strokeColor=#B09500;movable=0;resizable=0;rotatable=0;deletable=0;editable=0;connectable=0;" parent="28" vertex="1">
                    <mxGeometry x="100" y="429.9966666666666" width="120" height="60.416666666666664" as="geometry"/>
                </mxCell>
                <mxCell id="25" style="edgeStyle=orthogonalEdgeStyle;html=1;movable=0;resizable=0;rotatable=0;deletable=0;editable=0;connectable=0;" parent="28" source="10" target="14" edge="1">
                    <mxGeometry relative="1" as="geometry"/>
                </mxCell>
                <mxCell id="15" value="eth0物理网卡" style="rounded=0;whiteSpace=wrap;html=1;fillColor=#e3c800;fontColor=#000000;strokeColor=#B09500;movable=0;resizable=0;rotatable=0;deletable=0;editable=0;connectable=0;" parent="28" vertex="1">
                    <mxGeometry x="100" y="519.5833333333333" width="120" height="60.416666666666664" as="geometry"/>
                </mxCell>
                <mxCell id="27" style="edgeStyle=orthogonalEdgeStyle;html=1;movable=0;resizable=0;rotatable=0;deletable=0;editable=0;connectable=0;" parent="28" source="14" target="15" edge="1">
                    <mxGeometry relative="1" as="geometry"/>
                </mxCell>
                <mxCell id="49" style="edgeStyle=orthogonalEdgeStyle;html=1;entryX=0.5;entryY=0;entryDx=0;entryDy=0;strokeColor=#18141D;movable=0;resizable=0;rotatable=0;deletable=0;editable=0;connectable=0;" parent="28" source="46" target="10" edge="1">
                    <mxGeometry relative="1" as="geometry"/>
                </mxCell>
                <mxCell id="46" value="calixxx" style="rounded=0;whiteSpace=wrap;html=1;dashed=1;fillColor=#008a00;fontColor=#ffffff;strokeColor=#005700;movable=0;resizable=0;rotatable=0;deletable=0;editable=0;connectable=0;" parent="28" vertex="1">
                    <mxGeometry x="15" y="230" width="80" height="40" as="geometry"/>
                </mxCell>
                <mxCell id="48" style="edgeStyle=orthogonalEdgeStyle;html=1;entryX=0.5;entryY=0;entryDx=0;entryDy=0;strokeColor=#18141D;movable=0;resizable=0;rotatable=0;deletable=0;editable=0;connectable=0;" parent="28" source="47" target="46" edge="1">
                    <mxGeometry relative="1" as="geometry"/>
                </mxCell>
                <mxCell id="50" value="veth" style="edgeLabel;html=1;align=center;verticalAlign=middle;resizable=0;points=[];movable=0;rotatable=0;deletable=0;editable=0;connectable=0;" parent="48" vertex="1" connectable="0">
                    <mxGeometry x="-0.0932" y="2" relative="1" as="geometry">
                        <mxPoint as="offset"/>
                    </mxGeometry>
                </mxCell>
                <mxCell id="47" value="eth0" style="rounded=0;whiteSpace=wrap;html=1;dashed=1;fillColor=#008a00;strokeColor=#005700;fontColor=#ffffff;movable=0;resizable=0;rotatable=0;deletable=0;editable=0;connectable=0;" parent="28" vertex="1">
                    <mxGeometry x="15" y="156.66000000000003" width="80" height="36.67" as="geometry"/>
                </mxCell>
                <mxCell id="68" value="pod" style="rounded=0;whiteSpace=wrap;html=1;fillColor=#fa6800;fontColor=#000000;strokeColor=#C73500;dashed=1;movable=0;resizable=0;rotatable=0;deletable=0;editable=0;connectable=0;" parent="28" vertex="1">
                    <mxGeometry x="210" width="110" height="193.33333333333331" as="geometry"/>
                </mxCell>
                <mxCell id="71" style="edgeStyle=orthogonalEdgeStyle;html=1;entryX=0.5;entryY=0;entryDx=0;entryDy=0;strokeColor=#18141D;movable=0;resizable=0;rotatable=0;deletable=0;editable=0;connectable=0;" parent="28" source="69" target="70" edge="1">
                    <mxGeometry relative="1" as="geometry"/>
                </mxCell>
                <mxCell id="72" value="veth" style="edgeLabel;html=1;align=center;verticalAlign=middle;resizable=0;points=[];movable=0;rotatable=0;deletable=0;editable=0;connectable=0;" parent="71" vertex="1" connectable="0">
                    <mxGeometry x="-0.1553" y="-1" relative="1" as="geometry">
                        <mxPoint as="offset"/>
                    </mxGeometry>
                </mxCell>
                <mxCell id="69" value="eth0" style="rounded=0;whiteSpace=wrap;html=1;dashed=1;fillColor=#008a00;strokeColor=#005700;fontColor=#ffffff;movable=0;resizable=0;rotatable=0;deletable=0;editable=0;connectable=0;" parent="28" vertex="1">
                    <mxGeometry x="225" y="156.66000000000003" width="80" height="36.67" as="geometry"/>
                </mxCell>
                <mxCell id="70" value="calixxx" style="rounded=0;whiteSpace=wrap;html=1;dashed=1;fillColor=#008a00;fontColor=#ffffff;strokeColor=#005700;movable=0;resizable=0;rotatable=0;deletable=0;editable=0;connectable=0;" parent="28" vertex="1">
                    <mxGeometry x="225" y="230" width="80" height="40" as="geometry"/>
                </mxCell>
                <mxCell id="175" value="所有pod内路由" style="swimlane;fontStyle=0;childLayout=stackLayout;horizontal=1;startSize=30;horizontalStack=0;resizeParent=1;resizeParentMax=0;resizeLast=0;collapsible=1;marginBottom=0;whiteSpace=wrap;html=1;dashed=1;fontSize=13;fillColor=#f0a30a;fontColor=#000000;strokeColor=#BD7000;container=0;" parent="28" vertex="1">
                    <mxGeometry x="15" width="290" height="90" as="geometry"/>
                </mxCell>
                <mxCell id="189" value="" style="endArrow=classic;html=1;edgeStyle=orthogonalEdgeStyle;strokeColor=#CCCC00;strokeWidth=4;fillColor=#e3c800;" parent="28" edge="1">
                    <mxGeometry width="50" height="50" relative="1" as="geometry">
                        <mxPoint x="102.5" y="108" as="sourcePoint"/>
                        <mxPoint x="217.5" y="108" as="targetPoint"/>
                        <Array as="points">
                            <mxPoint x="103" y="312"/>
                            <mxPoint x="217" y="312"/>
                            <mxPoint x="217" y="123"/>
                        </Array>
                    </mxGeometry>
                </mxCell>
                <mxCell id="195" value="pod在同一node" style="edgeLabel;html=1;align=center;verticalAlign=middle;resizable=0;points=[];container=0;" parent="189" vertex="1" connectable="0">
                    <mxGeometry x="0.6457" relative="1" as="geometry">
                        <mxPoint x="-1" y="16" as="offset"/>
                    </mxGeometry>
                </mxCell>
                <mxCell id="176" value="&lt;div style=&quot;color: rgb(171, 178, 191); font-family: &amp;quot;JetBrains Mono&amp;quot;, &amp;quot;Courier New&amp;quot;, monospace, Menlo, Monaco, &amp;quot;Courier New&amp;quot;, monospace; font-size: 14px; line-height: 21px;&quot;&gt;&lt;div style=&quot;line-height: 21px;&quot;&gt;&lt;span style=&quot;color: rgb(127, 132, 142); font-style: italic;&quot;&gt;default via 169.254.1.1 dev eth0 &lt;/span&gt;&lt;/div&gt;&lt;/div&gt;" style="text;strokeColor=#B09500;fillColor=#e3c800;align=left;verticalAlign=middle;spacingLeft=4;spacingRight=4;overflow=hidden;points=[[0,0.5],[1,0.5]];portConstraint=eastwest;rotatable=0;whiteSpace=wrap;html=1;dashed=1;fontSize=13;fontColor=#000000;container=0;" parent="28" vertex="1">
                    <mxGeometry x="15" y="30" width="290" height="30" as="geometry"/>
                </mxCell>
                <mxCell id="178" value="&lt;font color=&quot;#18141d&quot;&gt;&lt;span style=&quot;font-style: italic; font-family: &amp;quot;JetBrains Mono&amp;quot;, &amp;quot;Courier New&amp;quot;, monospace, Menlo, Monaco, &amp;quot;Courier New&amp;quot;, monospace; font-size: 14px;&quot;&gt;169.254.1.1 dev eth0 scope link &lt;/span&gt;&amp;nbsp;&lt;/font&gt;" style="text;strokeColor=#B09500;fillColor=#e3c800;align=left;verticalAlign=middle;spacingLeft=4;spacingRight=4;overflow=hidden;points=[[0,0.5],[1,0.5]];portConstraint=eastwest;rotatable=0;whiteSpace=wrap;html=1;dashed=1;fontSize=13;fontColor=#000000;container=0;" parent="28" vertex="1">
                    <mxGeometry x="15" y="60" width="290" height="30" as="geometry"/>
                </mxCell>
                <mxCell id="73" style="edgeStyle=orthogonalEdgeStyle;html=1;strokeColor=#18141D;movable=0;resizable=0;rotatable=0;deletable=0;editable=0;connectable=0;" parent="386" source="70" edge="1">
                    <mxGeometry relative="1" as="geometry">
                        <mxPoint x="160" y="321.10344827586204" as="targetPoint"/>
                    </mxGeometry>
                </mxCell>
                <mxCell id="416" value="" style="group" vertex="1" connectable="0" parent="448">
                    <mxGeometry x="473" y="50" width="321" height="580" as="geometry"/>
                </mxCell>
                <mxCell id="417" value="" style="group;fillColor=#60a917;strokeColor=#2D7600;fontColor=#ffffff;movable=0;resizable=0;rotatable=0;deletable=0;editable=0;connectable=0;" vertex="1" connectable="0" parent="416">
                    <mxGeometry width="320" height="580" as="geometry"/>
                </mxCell>
                <mxCell id="418" value="" style="rounded=0;whiteSpace=wrap;html=1;fillColor=#1ba1e2;fontColor=#ffffff;strokeColor=#006EAF;movable=0;resizable=0;rotatable=0;deletable=0;editable=0;connectable=0;" vertex="1" parent="417">
                    <mxGeometry width="320" height="580" as="geometry"/>
                </mxCell>
                <mxCell id="419" style="edgeStyle=none;html=1;movable=0;resizable=0;rotatable=0;deletable=0;editable=0;connectable=0;" edge="1" parent="417" source="423" target="418">
                    <mxGeometry relative="1" as="geometry"/>
                </mxCell>
                <mxCell id="420" style="edgeStyle=none;html=1;movable=0;resizable=0;rotatable=0;deletable=0;editable=0;connectable=0;" edge="1" parent="417" source="423" target="418">
                    <mxGeometry relative="1" as="geometry"/>
                </mxCell>
                <mxCell id="421" style="edgeStyle=none;html=1;movable=0;resizable=0;rotatable=0;deletable=0;editable=0;connectable=0;" edge="1" parent="417" source="423" target="418">
                    <mxGeometry relative="1" as="geometry"/>
                </mxCell>
                <mxCell id="422" style="edgeStyle=none;html=1;movable=0;resizable=0;rotatable=0;deletable=0;editable=0;connectable=0;" edge="1" parent="417" source="423" target="418">
                    <mxGeometry relative="1" as="geometry"/>
                </mxCell>
                <mxCell id="423" value="pod" style="rounded=0;whiteSpace=wrap;html=1;fillColor=#fa6800;fontColor=#000000;strokeColor=#C73500;dashed=1;movable=0;resizable=0;rotatable=0;deletable=0;editable=0;connectable=0;" vertex="1" parent="417">
                    <mxGeometry width="110" height="193.33333333333331" as="geometry"/>
                </mxCell>
                <mxCell id="424" value="路由表" style="rounded=0;whiteSpace=wrap;html=1;fillColor=#e3c800;fontColor=#000000;strokeColor=#B09500;movable=0;resizable=0;rotatable=0;deletable=0;editable=0;connectable=0;" vertex="1" parent="417">
                    <mxGeometry x="100" y="320" width="120" height="60.416666666666664" as="geometry"/>
                </mxCell>
                <mxCell id="425" value="tun0网卡" style="rounded=0;whiteSpace=wrap;html=1;fillColor=#e3c800;fontColor=#000000;strokeColor=#B09500;movable=0;resizable=0;rotatable=0;deletable=0;editable=0;connectable=0;" vertex="1" parent="417">
                    <mxGeometry x="100" y="429.9966666666666" width="120" height="60.416666666666664" as="geometry"/>
                </mxCell>
                <mxCell id="426" style="edgeStyle=orthogonalEdgeStyle;html=1;movable=0;resizable=0;rotatable=0;deletable=0;editable=0;connectable=0;" edge="1" parent="417" source="424" target="425">
                    <mxGeometry relative="1" as="geometry"/>
                </mxCell>
                <mxCell id="427" value="eth0物理网卡" style="rounded=0;whiteSpace=wrap;html=1;fillColor=#e3c800;fontColor=#000000;strokeColor=#B09500;movable=0;resizable=0;rotatable=0;deletable=0;editable=0;connectable=0;" vertex="1" parent="417">
                    <mxGeometry x="100" y="519.5833333333333" width="120" height="60.416666666666664" as="geometry"/>
                </mxCell>
                <mxCell id="428" style="edgeStyle=orthogonalEdgeStyle;html=1;movable=0;resizable=0;rotatable=0;deletable=0;editable=0;connectable=0;" edge="1" parent="417" source="425" target="427">
                    <mxGeometry relative="1" as="geometry"/>
                </mxCell>
                <mxCell id="429" style="edgeStyle=orthogonalEdgeStyle;html=1;entryX=0.5;entryY=0;entryDx=0;entryDy=0;strokeColor=#18141D;movable=0;resizable=0;rotatable=0;deletable=0;editable=0;connectable=0;" edge="1" parent="417" source="430" target="424">
                    <mxGeometry relative="1" as="geometry"/>
                </mxCell>
                <mxCell id="430" value="calixxx" style="rounded=0;whiteSpace=wrap;html=1;dashed=1;fillColor=#008a00;fontColor=#ffffff;strokeColor=#005700;movable=0;resizable=0;rotatable=0;deletable=0;editable=0;connectable=0;" vertex="1" parent="417">
                    <mxGeometry x="15" y="230" width="80" height="40" as="geometry"/>
                </mxCell>
                <mxCell id="431" style="edgeStyle=orthogonalEdgeStyle;html=1;entryX=0.5;entryY=0;entryDx=0;entryDy=0;strokeColor=#18141D;movable=0;resizable=0;rotatable=0;deletable=0;editable=0;connectable=0;" edge="1" parent="417" source="433" target="430">
                    <mxGeometry relative="1" as="geometry"/>
                </mxCell>
                <mxCell id="432" value="veth" style="edgeLabel;html=1;align=center;verticalAlign=middle;resizable=0;points=[];movable=0;rotatable=0;deletable=0;editable=0;connectable=0;" vertex="1" connectable="0" parent="431">
                    <mxGeometry x="-0.0932" y="2" relative="1" as="geometry">
                        <mxPoint as="offset"/>
                    </mxGeometry>
                </mxCell>
                <mxCell id="433" value="eth0" style="rounded=0;whiteSpace=wrap;html=1;dashed=1;fillColor=#008a00;strokeColor=#005700;fontColor=#ffffff;movable=0;resizable=0;rotatable=0;deletable=0;editable=0;connectable=0;" vertex="1" parent="417">
                    <mxGeometry x="15" y="156.66000000000003" width="80" height="36.67" as="geometry"/>
                </mxCell>
                <mxCell id="434" value="pod" style="rounded=0;whiteSpace=wrap;html=1;fillColor=#fa6800;fontColor=#000000;strokeColor=#C73500;dashed=1;movable=0;resizable=0;rotatable=0;deletable=0;editable=0;connectable=0;" vertex="1" parent="417">
                    <mxGeometry x="210" width="110" height="193.33333333333331" as="geometry"/>
                </mxCell>
                <mxCell id="435" style="edgeStyle=orthogonalEdgeStyle;html=1;entryX=0.5;entryY=0;entryDx=0;entryDy=0;strokeColor=#18141D;movable=0;resizable=0;rotatable=0;deletable=0;editable=0;connectable=0;" edge="1" parent="417" source="437" target="438">
                    <mxGeometry relative="1" as="geometry"/>
                </mxCell>
                <mxCell id="436" value="veth" style="edgeLabel;html=1;align=center;verticalAlign=middle;resizable=0;points=[];movable=0;rotatable=0;deletable=0;editable=0;connectable=0;" vertex="1" connectable="0" parent="435">
                    <mxGeometry x="-0.1553" y="-1" relative="1" as="geometry">
                        <mxPoint as="offset"/>
                    </mxGeometry>
                </mxCell>
                <mxCell id="437" value="eth0" style="rounded=0;whiteSpace=wrap;html=1;dashed=1;fillColor=#008a00;strokeColor=#005700;fontColor=#ffffff;movable=0;resizable=0;rotatable=0;deletable=0;editable=0;connectable=0;" vertex="1" parent="417">
                    <mxGeometry x="225" y="156.66000000000003" width="80" height="36.67" as="geometry"/>
                </mxCell>
                <mxCell id="438" value="calixxx" style="rounded=0;whiteSpace=wrap;html=1;dashed=1;fillColor=#008a00;fontColor=#ffffff;strokeColor=#005700;movable=0;resizable=0;rotatable=0;deletable=0;editable=0;connectable=0;" vertex="1" parent="417">
                    <mxGeometry x="225" y="230" width="80" height="40" as="geometry"/>
                </mxCell>
                <mxCell id="439" value="所有pod内路由" style="swimlane;fontStyle=0;childLayout=stackLayout;horizontal=1;startSize=30;horizontalStack=0;resizeParent=1;resizeParentMax=0;resizeLast=0;collapsible=1;marginBottom=0;whiteSpace=wrap;html=1;dashed=1;fontSize=13;fillColor=#f0a30a;fontColor=#000000;strokeColor=#BD7000;container=0;" vertex="1" parent="417">
                    <mxGeometry x="15" width="290" height="90" as="geometry"/>
                </mxCell>
                <mxCell id="440" value="" style="endArrow=classic;html=1;edgeStyle=orthogonalEdgeStyle;strokeColor=#CCCC00;strokeWidth=4;fillColor=#e3c800;" edge="1" parent="417">
                    <mxGeometry width="50" height="50" relative="1" as="geometry">
                        <mxPoint x="102.5" y="108" as="sourcePoint"/>
                        <mxPoint x="217.5" y="108" as="targetPoint"/>
                        <Array as="points">
                            <mxPoint x="103" y="312"/>
                            <mxPoint x="217" y="312"/>
                            <mxPoint x="217" y="123"/>
                        </Array>
                    </mxGeometry>
                </mxCell>
                <mxCell id="441" value="pod在同一node" style="edgeLabel;html=1;align=center;verticalAlign=middle;resizable=0;points=[];container=0;" vertex="1" connectable="0" parent="440">
                    <mxGeometry x="0.6457" relative="1" as="geometry">
                        <mxPoint x="-1" y="16" as="offset"/>
                    </mxGeometry>
                </mxCell>
                <mxCell id="442" value="&lt;div style=&quot;color: rgb(171, 178, 191); font-family: &amp;quot;JetBrains Mono&amp;quot;, &amp;quot;Courier New&amp;quot;, monospace, Menlo, Monaco, &amp;quot;Courier New&amp;quot;, monospace; font-size: 14px; line-height: 21px;&quot;&gt;&lt;div style=&quot;line-height: 21px;&quot;&gt;&lt;span style=&quot;color: rgb(127, 132, 142); font-style: italic;&quot;&gt;default via 169.254.1.1 dev eth0 &lt;/span&gt;&lt;/div&gt;&lt;/div&gt;" style="text;strokeColor=#B09500;fillColor=#e3c800;align=left;verticalAlign=middle;spacingLeft=4;spacingRight=4;overflow=hidden;points=[[0,0.5],[1,0.5]];portConstraint=eastwest;rotatable=0;whiteSpace=wrap;html=1;dashed=1;fontSize=13;fontColor=#000000;container=0;" vertex="1" parent="417">
                    <mxGeometry x="15" y="30" width="290" height="30" as="geometry"/>
                </mxCell>
                <mxCell id="443" value="&lt;font color=&quot;#18141d&quot;&gt;&lt;span style=&quot;font-style: italic; font-family: &amp;quot;JetBrains Mono&amp;quot;, &amp;quot;Courier New&amp;quot;, monospace, Menlo, Monaco, &amp;quot;Courier New&amp;quot;, monospace; font-size: 14px;&quot;&gt;169.254.1.1 dev eth0 scope link &lt;/span&gt;&amp;nbsp;&lt;/font&gt;" style="text;strokeColor=#B09500;fillColor=#e3c800;align=left;verticalAlign=middle;spacingLeft=4;spacingRight=4;overflow=hidden;points=[[0,0.5],[1,0.5]];portConstraint=eastwest;rotatable=0;whiteSpace=wrap;html=1;dashed=1;fontSize=13;fontColor=#000000;container=0;" vertex="1" parent="417">
                    <mxGeometry x="15" y="60" width="290" height="30" as="geometry"/>
                </mxCell>
                <mxCell id="444" style="edgeStyle=orthogonalEdgeStyle;html=1;strokeColor=#18141D;movable=0;resizable=0;rotatable=0;deletable=0;editable=0;connectable=0;" edge="1" parent="416" source="438">
                    <mxGeometry relative="1" as="geometry">
                        <mxPoint x="160.5" y="320" as="targetPoint"/>
                    </mxGeometry>
                </mxCell>
                <mxCell id="446" value="" style="endArrow=classic;startArrow=classic;html=1;edgeStyle=orthogonalEdgeStyle;strokeColor=#18141D;strokeWidth=4;" edge="1" parent="448">
                    <mxGeometry width="50" height="50" relative="1" as="geometry">
                        <mxPoint x="636" y="628" as="sourcePoint"/>
                        <mxPoint x="157" y="628" as="targetPoint"/>
                        <Array as="points">
                            <mxPoint x="636" y="701"/>
                            <mxPoint x="157" y="701"/>
                        </Array>
                    </mxGeometry>
                </mxCell>
                <mxCell id="447" value="物理网络（ipip）" style="edgeLabel;html=1;align=center;verticalAlign=middle;resizable=0;points=[];" vertex="1" connectable="0" parent="446">
                    <mxGeometry x="0.0496" y="-2" relative="1" as="geometry">
                        <mxPoint as="offset"/>
                    </mxGeometry>
                </mxCell>
                <mxCell id="450" value="&lt;font style=&quot;font-size: 19px;&quot; color=&quot;#ff0000&quot;&gt;calico-vxlan&lt;/font&gt;" style="text;html=1;align=center;verticalAlign=middle;resizable=0;points=[];autosize=1;strokeColor=none;fillColor=none;strokeWidth=5;" vertex="1" parent="1">
                    <mxGeometry x="1407" y="-132" width="117" height="35" as="geometry"/>
                </mxCell>
                <mxCell id="480" value="" style="group;movable=0;resizable=0;rotatable=0;deletable=0;editable=0;connectable=0;" vertex="1" connectable="0" parent="1">
                    <mxGeometry x="1552" y="-82" width="321" height="580" as="geometry"/>
                </mxCell>
                <mxCell id="481" value="" style="group;fillColor=#60a917;strokeColor=#2D7600;fontColor=#ffffff;movable=0;resizable=0;rotatable=0;deletable=0;editable=0;connectable=0;" vertex="1" connectable="0" parent="480">
                    <mxGeometry width="320" height="580" as="geometry"/>
                </mxCell>
                <mxCell id="482" value="" style="rounded=0;whiteSpace=wrap;html=1;fillColor=#1ba1e2;fontColor=#ffffff;strokeColor=#006EAF;movable=0;resizable=0;rotatable=0;deletable=0;editable=0;connectable=0;" vertex="1" parent="481">
                    <mxGeometry width="320" height="580" as="geometry"/>
                </mxCell>
                <mxCell id="483" style="edgeStyle=none;html=1;movable=0;resizable=0;rotatable=0;deletable=0;editable=0;connectable=0;" edge="1" parent="481" source="487" target="482">
                    <mxGeometry relative="1" as="geometry"/>
                </mxCell>
                <mxCell id="484" style="edgeStyle=none;html=1;movable=0;resizable=0;rotatable=0;deletable=0;editable=0;connectable=0;" edge="1" parent="481" source="487" target="482">
                    <mxGeometry relative="1" as="geometry"/>
                </mxCell>
                <mxCell id="485" style="edgeStyle=none;html=1;movable=0;resizable=0;rotatable=0;deletable=0;editable=0;connectable=0;" edge="1" parent="481" source="487" target="482">
                    <mxGeometry relative="1" as="geometry"/>
                </mxCell>
                <mxCell id="486" style="edgeStyle=none;html=1;movable=0;resizable=0;rotatable=0;deletable=0;editable=0;connectable=0;" edge="1" parent="481" source="487" target="482">
                    <mxGeometry relative="1" as="geometry"/>
                </mxCell>
                <mxCell id="487" value="pod" style="rounded=0;whiteSpace=wrap;html=1;fillColor=#fa6800;fontColor=#000000;strokeColor=#C73500;dashed=1;movable=0;resizable=0;rotatable=0;deletable=0;editable=0;connectable=0;" vertex="1" parent="481">
                    <mxGeometry width="110" height="193.33333333333331" as="geometry"/>
                </mxCell>
                <mxCell id="488" value="路由表" style="rounded=0;whiteSpace=wrap;html=1;fillColor=#e3c800;fontColor=#000000;strokeColor=#B09500;movable=0;resizable=0;rotatable=0;deletable=0;editable=0;connectable=0;" vertex="1" parent="481">
                    <mxGeometry x="100" y="320" width="120" height="60.416666666666664" as="geometry"/>
                </mxCell>
                <mxCell id="489" value="vxlan网卡" style="rounded=0;whiteSpace=wrap;html=1;fillColor=#e3c800;fontColor=#000000;strokeColor=#B09500;movable=1;resizable=1;rotatable=1;deletable=1;editable=1;connectable=1;" vertex="1" parent="481">
                    <mxGeometry x="100" y="429.9966666666666" width="120" height="60.416666666666664" as="geometry"/>
                </mxCell>
                <mxCell id="490" style="edgeStyle=orthogonalEdgeStyle;html=1;movable=0;resizable=0;rotatable=0;deletable=0;editable=0;connectable=0;" edge="1" parent="481" source="488" target="489">
                    <mxGeometry relative="1" as="geometry"/>
                </mxCell>
                <mxCell id="491" value="eth0物理网卡" style="rounded=0;whiteSpace=wrap;html=1;fillColor=#e3c800;fontColor=#000000;strokeColor=#B09500;movable=0;resizable=0;rotatable=0;deletable=0;editable=0;connectable=0;" vertex="1" parent="481">
                    <mxGeometry x="100" y="519.5833333333333" width="120" height="60.416666666666664" as="geometry"/>
                </mxCell>
                <mxCell id="492" style="edgeStyle=orthogonalEdgeStyle;html=1;movable=0;resizable=0;rotatable=0;deletable=0;editable=0;connectable=0;" edge="1" parent="481" source="489" target="491">
                    <mxGeometry relative="1" as="geometry"/>
                </mxCell>
                <mxCell id="493" style="edgeStyle=orthogonalEdgeStyle;html=1;entryX=0.5;entryY=0;entryDx=0;entryDy=0;strokeColor=#18141D;movable=0;resizable=0;rotatable=0;deletable=0;editable=0;connectable=0;" edge="1" parent="481" source="494" target="488">
                    <mxGeometry relative="1" as="geometry"/>
                </mxCell>
                <mxCell id="494" value="calixxx" style="rounded=0;whiteSpace=wrap;html=1;dashed=1;fillColor=#008a00;fontColor=#ffffff;strokeColor=#005700;movable=0;resizable=0;rotatable=0;deletable=0;editable=0;connectable=0;" vertex="1" parent="481">
                    <mxGeometry x="15" y="230" width="80" height="40" as="geometry"/>
                </mxCell>
                <mxCell id="495" style="edgeStyle=orthogonalEdgeStyle;html=1;entryX=0.5;entryY=0;entryDx=0;entryDy=0;strokeColor=#18141D;movable=0;resizable=0;rotatable=0;deletable=0;editable=0;connectable=0;" edge="1" parent="481" source="497" target="494">
                    <mxGeometry relative="1" as="geometry"/>
                </mxCell>
                <mxCell id="496" value="veth" style="edgeLabel;html=1;align=center;verticalAlign=middle;resizable=0;points=[];movable=0;rotatable=0;deletable=0;editable=0;connectable=0;" vertex="1" connectable="0" parent="495">
                    <mxGeometry x="-0.0932" y="2" relative="1" as="geometry">
                        <mxPoint as="offset"/>
                    </mxGeometry>
                </mxCell>
                <mxCell id="497" value="eth0" style="rounded=0;whiteSpace=wrap;html=1;dashed=1;fillColor=#008a00;strokeColor=#005700;fontColor=#ffffff;movable=0;resizable=0;rotatable=0;deletable=0;editable=0;connectable=0;" vertex="1" parent="481">
                    <mxGeometry x="15" y="156.66000000000003" width="80" height="36.67" as="geometry"/>
                </mxCell>
                <mxCell id="498" value="pod" style="rounded=0;whiteSpace=wrap;html=1;fillColor=#fa6800;fontColor=#000000;strokeColor=#C73500;dashed=1;movable=0;resizable=0;rotatable=0;deletable=0;editable=0;connectable=0;" vertex="1" parent="481">
                    <mxGeometry x="210" width="110" height="193.33333333333331" as="geometry"/>
                </mxCell>
                <mxCell id="499" style="edgeStyle=orthogonalEdgeStyle;html=1;entryX=0.5;entryY=0;entryDx=0;entryDy=0;strokeColor=#18141D;movable=0;resizable=0;rotatable=0;deletable=0;editable=0;connectable=0;" edge="1" parent="481" source="501" target="502">
                    <mxGeometry relative="1" as="geometry"/>
                </mxCell>
                <mxCell id="500" value="veth" style="edgeLabel;html=1;align=center;verticalAlign=middle;resizable=0;points=[];movable=0;rotatable=0;deletable=0;editable=0;connectable=0;" vertex="1" connectable="0" parent="499">
                    <mxGeometry x="-0.1553" y="-1" relative="1" as="geometry">
                        <mxPoint as="offset"/>
                    </mxGeometry>
                </mxCell>
                <mxCell id="501" value="eth0" style="rounded=0;whiteSpace=wrap;html=1;dashed=1;fillColor=#008a00;strokeColor=#005700;fontColor=#ffffff;movable=0;resizable=0;rotatable=0;deletable=0;editable=0;connectable=0;" vertex="1" parent="481">
                    <mxGeometry x="225" y="156.66000000000003" width="80" height="36.67" as="geometry"/>
                </mxCell>
                <mxCell id="502" value="calixxx" style="rounded=0;whiteSpace=wrap;html=1;dashed=1;fillColor=#008a00;fontColor=#ffffff;strokeColor=#005700;movable=0;resizable=0;rotatable=0;deletable=0;editable=0;connectable=0;" vertex="1" parent="481">
                    <mxGeometry x="225" y="230" width="80" height="40" as="geometry"/>
                </mxCell>
                <mxCell id="503" value="所有pod内路由" style="swimlane;fontStyle=0;childLayout=stackLayout;horizontal=1;startSize=30;horizontalStack=0;resizeParent=1;resizeParentMax=0;resizeLast=0;collapsible=1;marginBottom=0;whiteSpace=wrap;html=1;dashed=1;fontSize=13;fillColor=#f0a30a;fontColor=#000000;strokeColor=#BD7000;container=0;" vertex="1" parent="481">
                    <mxGeometry x="15" width="290" height="90" as="geometry"/>
                </mxCell>
                <mxCell id="504" value="" style="endArrow=classic;html=1;edgeStyle=orthogonalEdgeStyle;strokeColor=#CCCC00;strokeWidth=4;fillColor=#e3c800;" edge="1" parent="481">
                    <mxGeometry width="50" height="50" relative="1" as="geometry">
                        <mxPoint x="102.5" y="108" as="sourcePoint"/>
                        <mxPoint x="217.5" y="108" as="targetPoint"/>
                        <Array as="points">
                            <mxPoint x="103" y="312"/>
                            <mxPoint x="217" y="312"/>
                            <mxPoint x="217" y="123"/>
                        </Array>
                    </mxGeometry>
                </mxCell>
                <mxCell id="505" value="pod在同一node" style="edgeLabel;html=1;align=center;verticalAlign=middle;resizable=0;points=[];container=0;" vertex="1" connectable="0" parent="504">
                    <mxGeometry x="0.6457" relative="1" as="geometry">
                        <mxPoint x="-1" y="16" as="offset"/>
                    </mxGeometry>
                </mxCell>
                <mxCell id="506" value="&lt;div style=&quot;color: rgb(171, 178, 191); font-family: &amp;quot;JetBrains Mono&amp;quot;, &amp;quot;Courier New&amp;quot;, monospace, Menlo, Monaco, &amp;quot;Courier New&amp;quot;, monospace; font-size: 14px; line-height: 21px;&quot;&gt;&lt;div style=&quot;line-height: 21px;&quot;&gt;&lt;span style=&quot;color: rgb(127, 132, 142); font-style: italic;&quot;&gt;default via 169.254.1.1 dev eth0 &lt;/span&gt;&lt;/div&gt;&lt;/div&gt;" style="text;strokeColor=#B09500;fillColor=#e3c800;align=left;verticalAlign=middle;spacingLeft=4;spacingRight=4;overflow=hidden;points=[[0,0.5],[1,0.5]];portConstraint=eastwest;rotatable=0;whiteSpace=wrap;html=1;dashed=1;fontSize=13;fontColor=#000000;container=0;" vertex="1" parent="481">
                    <mxGeometry x="15" y="30" width="290" height="30" as="geometry"/>
                </mxCell>
                <mxCell id="507" value="&lt;font color=&quot;#18141d&quot;&gt;&lt;span style=&quot;font-style: italic; font-family: &amp;quot;JetBrains Mono&amp;quot;, &amp;quot;Courier New&amp;quot;, monospace, Menlo, Monaco, &amp;quot;Courier New&amp;quot;, monospace; font-size: 14px;&quot;&gt;169.254.1.1 dev eth0 scope link &lt;/span&gt;&amp;nbsp;&lt;/font&gt;" style="text;strokeColor=#B09500;fillColor=#e3c800;align=left;verticalAlign=middle;spacingLeft=4;spacingRight=4;overflow=hidden;points=[[0,0.5],[1,0.5]];portConstraint=eastwest;rotatable=0;whiteSpace=wrap;html=1;dashed=1;fontSize=13;fontColor=#000000;container=0;" vertex="1" parent="481">
                    <mxGeometry x="15" y="60" width="290" height="30" as="geometry"/>
                </mxCell>
                <mxCell id="508" style="edgeStyle=orthogonalEdgeStyle;html=1;strokeColor=#18141D;movable=0;resizable=0;rotatable=0;deletable=0;editable=0;connectable=0;" edge="1" parent="480" source="502">
                    <mxGeometry relative="1" as="geometry">
                        <mxPoint x="160.5" y="320" as="targetPoint"/>
                    </mxGeometry>
                </mxCell>
                <mxCell id="509" value="" style="endArrow=classic;startArrow=classic;html=1;edgeStyle=orthogonalEdgeStyle;strokeColor=#18141D;strokeWidth=4;" edge="1" parent="1">
                    <mxGeometry width="50" height="50" relative="1" as="geometry">
                        <mxPoint x="1715" y="496" as="sourcePoint"/>
                        <mxPoint x="1236" y="496" as="targetPoint"/>
                        <Array as="points">
                            <mxPoint x="1715" y="569"/>
                            <mxPoint x="1236" y="569"/>
                        </Array>
                    </mxGeometry>
                </mxCell>
                <mxCell id="510" value="物理网络（vxlan）" style="edgeLabel;html=1;align=center;verticalAlign=middle;resizable=0;points=[];" vertex="1" connectable="0" parent="509">
                    <mxGeometry x="0.0496" y="-2" relative="1" as="geometry">
                        <mxPoint as="offset"/>
                    </mxGeometry>
                </mxCell>
                <mxCell id="479" style="edgeStyle=orthogonalEdgeStyle;html=1;strokeColor=#18141D;movable=0;resizable=0;rotatable=0;deletable=0;editable=0;connectable=0;" edge="1" parent="1" source="473">
                    <mxGeometry relative="1" as="geometry">
                        <mxPoint x="1239" y="241.10344827586204" as="targetPoint"/>
                    </mxGeometry>
                </mxCell>
                <mxCell id="452" value="" style="group;fillColor=#60a917;strokeColor=#2D7600;fontColor=#ffffff;movable=1;resizable=1;rotatable=1;deletable=1;editable=1;connectable=1;" vertex="1" connectable="0" parent="1">
                    <mxGeometry x="1079" y="-80" width="320" height="580" as="geometry"/>
                </mxCell>
                <mxCell id="453" value="" style="rounded=0;whiteSpace=wrap;html=1;fillColor=#1ba1e2;fontColor=#ffffff;strokeColor=#006EAF;movable=0;resizable=0;rotatable=0;deletable=0;editable=0;connectable=0;" vertex="1" parent="452">
                    <mxGeometry width="320" height="580" as="geometry"/>
                </mxCell>
                <mxCell id="454" style="edgeStyle=none;html=1;movable=0;resizable=0;rotatable=0;deletable=0;editable=0;connectable=0;" edge="1" parent="452" source="458" target="453">
                    <mxGeometry relative="1" as="geometry"/>
                </mxCell>
                <mxCell id="455" style="edgeStyle=none;html=1;movable=0;resizable=0;rotatable=0;deletable=0;editable=0;connectable=0;" edge="1" parent="452" source="458" target="453">
                    <mxGeometry relative="1" as="geometry"/>
                </mxCell>
                <mxCell id="456" style="edgeStyle=none;html=1;movable=0;resizable=0;rotatable=0;deletable=0;editable=0;connectable=0;" edge="1" parent="452" source="458" target="453">
                    <mxGeometry relative="1" as="geometry"/>
                </mxCell>
                <mxCell id="457" style="edgeStyle=none;html=1;movable=0;resizable=0;rotatable=0;deletable=0;editable=0;connectable=0;" edge="1" parent="452" source="458" target="453">
                    <mxGeometry relative="1" as="geometry"/>
                </mxCell>
                <mxCell id="458" value="pod" style="rounded=0;whiteSpace=wrap;html=1;fillColor=#fa6800;fontColor=#000000;strokeColor=#C73500;dashed=1;movable=0;resizable=0;rotatable=0;deletable=0;editable=0;connectable=0;" vertex="1" parent="452">
                    <mxGeometry width="110" height="193.33333333333331" as="geometry"/>
                </mxCell>
                <mxCell id="459" value="路由表" style="rounded=0;whiteSpace=wrap;html=1;fillColor=#e3c800;fontColor=#000000;strokeColor=#B09500;movable=0;resizable=0;rotatable=0;deletable=0;editable=0;connectable=0;" vertex="1" parent="452">
                    <mxGeometry x="100" y="320" width="120" height="60.416666666666664" as="geometry"/>
                </mxCell>
                <mxCell id="460" value="vxlan网卡" style="rounded=0;whiteSpace=wrap;html=1;fillColor=#e3c800;fontColor=#000000;strokeColor=#B09500;movable=1;resizable=1;rotatable=1;deletable=1;editable=1;connectable=1;" vertex="1" parent="452">
                    <mxGeometry x="100" y="429.9966666666666" width="120" height="60.416666666666664" as="geometry"/>
                </mxCell>
                <mxCell id="461" style="edgeStyle=orthogonalEdgeStyle;html=1;movable=0;resizable=0;rotatable=0;deletable=0;editable=0;connectable=0;" edge="1" parent="452" source="459" target="460">
                    <mxGeometry relative="1" as="geometry"/>
                </mxCell>
                <mxCell id="462" value="eth0物理网卡" style="rounded=0;whiteSpace=wrap;html=1;fillColor=#e3c800;fontColor=#000000;strokeColor=#B09500;movable=0;resizable=0;rotatable=0;deletable=0;editable=0;connectable=0;" vertex="1" parent="452">
                    <mxGeometry x="100" y="519.5833333333333" width="120" height="60.416666666666664" as="geometry"/>
                </mxCell>
                <mxCell id="463" style="edgeStyle=orthogonalEdgeStyle;html=1;movable=0;resizable=0;rotatable=0;deletable=0;editable=0;connectable=0;" edge="1" parent="452" source="460" target="462">
                    <mxGeometry relative="1" as="geometry"/>
                </mxCell>
                <mxCell id="464" style="edgeStyle=orthogonalEdgeStyle;html=1;entryX=0.5;entryY=0;entryDx=0;entryDy=0;strokeColor=#18141D;movable=0;resizable=0;rotatable=0;deletable=0;editable=0;connectable=0;" edge="1" parent="452" source="465" target="459">
                    <mxGeometry relative="1" as="geometry"/>
                </mxCell>
                <mxCell id="465" value="calixxx" style="rounded=0;whiteSpace=wrap;html=1;dashed=1;fillColor=#008a00;fontColor=#ffffff;strokeColor=#005700;movable=0;resizable=0;rotatable=0;deletable=0;editable=0;connectable=0;" vertex="1" parent="452">
                    <mxGeometry x="15" y="230" width="80" height="40" as="geometry"/>
                </mxCell>
                <mxCell id="466" style="edgeStyle=orthogonalEdgeStyle;html=1;entryX=0.5;entryY=0;entryDx=0;entryDy=0;strokeColor=#18141D;movable=0;resizable=0;rotatable=0;deletable=0;editable=0;connectable=0;" edge="1" parent="452" source="468" target="465">
                    <mxGeometry relative="1" as="geometry"/>
                </mxCell>
                <mxCell id="467" value="veth" style="edgeLabel;html=1;align=center;verticalAlign=middle;resizable=0;points=[];movable=0;rotatable=0;deletable=0;editable=0;connectable=0;" vertex="1" connectable="0" parent="466">
                    <mxGeometry x="-0.0932" y="2" relative="1" as="geometry">
                        <mxPoint as="offset"/>
                    </mxGeometry>
                </mxCell>
                <mxCell id="468" value="eth0" style="rounded=0;whiteSpace=wrap;html=1;dashed=1;fillColor=#008a00;strokeColor=#005700;fontColor=#ffffff;movable=0;resizable=0;rotatable=0;deletable=0;editable=0;connectable=0;" vertex="1" parent="452">
                    <mxGeometry x="15" y="156.66000000000003" width="80" height="36.67" as="geometry"/>
                </mxCell>
                <mxCell id="469" value="pod" style="rounded=0;whiteSpace=wrap;html=1;fillColor=#fa6800;fontColor=#000000;strokeColor=#C73500;dashed=1;movable=0;resizable=0;rotatable=0;deletable=0;editable=0;connectable=0;" vertex="1" parent="452">
                    <mxGeometry x="210" width="110" height="193.33333333333331" as="geometry"/>
                </mxCell>
                <mxCell id="470" style="edgeStyle=orthogonalEdgeStyle;html=1;entryX=0.5;entryY=0;entryDx=0;entryDy=0;strokeColor=#18141D;movable=0;resizable=0;rotatable=0;deletable=0;editable=0;connectable=0;" edge="1" parent="452" source="472" target="473">
                    <mxGeometry relative="1" as="geometry"/>
                </mxCell>
                <mxCell id="471" value="veth" style="edgeLabel;html=1;align=center;verticalAlign=middle;resizable=0;points=[];movable=0;rotatable=0;deletable=0;editable=0;connectable=0;" vertex="1" connectable="0" parent="470">
                    <mxGeometry x="-0.1553" y="-1" relative="1" as="geometry">
                        <mxPoint as="offset"/>
                    </mxGeometry>
                </mxCell>
                <mxCell id="472" value="eth0" style="rounded=0;whiteSpace=wrap;html=1;dashed=1;fillColor=#008a00;strokeColor=#005700;fontColor=#ffffff;movable=0;resizable=0;rotatable=0;deletable=0;editable=0;connectable=0;" vertex="1" parent="452">
                    <mxGeometry x="225" y="156.66000000000003" width="80" height="36.67" as="geometry"/>
                </mxCell>
                <mxCell id="473" value="calixxx" style="rounded=0;whiteSpace=wrap;html=1;dashed=1;fillColor=#008a00;fontColor=#ffffff;strokeColor=#005700;movable=0;resizable=0;rotatable=0;deletable=0;editable=0;connectable=0;" vertex="1" parent="452">
                    <mxGeometry x="225" y="230" width="80" height="40" as="geometry"/>
                </mxCell>
                <mxCell id="474" value="所有pod内路由" style="swimlane;fontStyle=0;childLayout=stackLayout;horizontal=1;startSize=30;horizontalStack=0;resizeParent=1;resizeParentMax=0;resizeLast=0;collapsible=1;marginBottom=0;whiteSpace=wrap;html=1;dashed=1;fontSize=13;fillColor=#f0a30a;fontColor=#000000;strokeColor=#BD7000;container=0;" vertex="1" parent="452">
                    <mxGeometry x="15" width="290" height="90" as="geometry"/>
                </mxCell>
                <mxCell id="475" value="" style="endArrow=classic;html=1;edgeStyle=orthogonalEdgeStyle;strokeColor=#CCCC00;strokeWidth=4;fillColor=#e3c800;" edge="1" parent="452">
                    <mxGeometry width="50" height="50" relative="1" as="geometry">
                        <mxPoint x="102.5" y="108" as="sourcePoint"/>
                        <mxPoint x="217.5" y="108" as="targetPoint"/>
                        <Array as="points">
                            <mxPoint x="103" y="312"/>
                            <mxPoint x="217" y="312"/>
                            <mxPoint x="217" y="123"/>
                        </Array>
                    </mxGeometry>
                </mxCell>
                <mxCell id="476" value="pod在同一node" style="edgeLabel;html=1;align=center;verticalAlign=middle;resizable=0;points=[];container=0;" vertex="1" connectable="0" parent="475">
                    <mxGeometry x="0.6457" relative="1" as="geometry">
                        <mxPoint x="-1" y="16" as="offset"/>
                    </mxGeometry>
                </mxCell>
                <mxCell id="477" value="&lt;div style=&quot;color: rgb(171, 178, 191); font-family: &amp;quot;JetBrains Mono&amp;quot;, &amp;quot;Courier New&amp;quot;, monospace, Menlo, Monaco, &amp;quot;Courier New&amp;quot;, monospace; font-size: 14px; line-height: 21px;&quot;&gt;&lt;div style=&quot;line-height: 21px;&quot;&gt;&lt;span style=&quot;color: rgb(127, 132, 142); font-style: italic;&quot;&gt;default via 169.254.1.1 dev eth0 &lt;/span&gt;&lt;/div&gt;&lt;/div&gt;" style="text;strokeColor=#B09500;fillColor=#e3c800;align=left;verticalAlign=middle;spacingLeft=4;spacingRight=4;overflow=hidden;points=[[0,0.5],[1,0.5]];portConstraint=eastwest;rotatable=0;whiteSpace=wrap;html=1;dashed=1;fontSize=13;fontColor=#000000;container=0;" vertex="1" parent="452">
                    <mxGeometry x="15" y="30" width="290" height="30" as="geometry"/>
                </mxCell>
                <mxCell id="478" value="&lt;font color=&quot;#18141d&quot;&gt;&lt;span style=&quot;font-style: italic; font-family: &amp;quot;JetBrains Mono&amp;quot;, &amp;quot;Courier New&amp;quot;, monospace, Menlo, Monaco, &amp;quot;Courier New&amp;quot;, monospace; font-size: 14px;&quot;&gt;169.254.1.1 dev eth0 scope link &lt;/span&gt;&amp;nbsp;&lt;/font&gt;" style="text;strokeColor=#B09500;fillColor=#e3c800;align=left;verticalAlign=middle;spacingLeft=4;spacingRight=4;overflow=hidden;points=[[0,0.5],[1,0.5]];portConstraint=eastwest;rotatable=0;whiteSpace=wrap;html=1;dashed=1;fontSize=13;fontColor=#000000;container=0;" vertex="1" parent="452">
                    <mxGeometry x="15" y="60" width="290" height="30" as="geometry"/>
                </mxCell>
            </root>
        </mxGraphModel>
    </diagram>
</mxfile>